<svg viewBox="0 0 213 132" fill="none" xmlns="http://www.w3.org/2000/svg">
<g clip-path="url(#clip0)">
<path d="M210.56 62.3502C210.557 62.3486 210.555 62.3468 210.552 62.3453L167.077 35.5328C163.82 33.5241 158.552 33.5316 155.31 35.5503C152.068 37.5687 152.081 40.8334 155.338 42.8423L184.527 60.8438H8.32031C3.725 60.8438 0 63.1522 0 66C0 68.8478 3.725 71.1562 8.32031 71.1562H184.527L155.338 89.1578C152.081 91.1666 152.069 94.4313 155.31 96.4497C158.552 98.4686 163.821 98.4756 167.077 96.4672L210.553 69.6547C210.555 69.6532 210.557 69.6514 210.56 69.6499C213.819 67.6343 213.808 64.359 210.56 62.3502Z" fill="white"/>
</g>
<defs>
<clipPath id="clip0">
<rect width="800" height="800" fill="white"/>
</clipPath>
</defs>
</svg>
